<svg width="40" height="40" viewBox="0 0 40 40" fill="none" xmlns="http://www.w3.org/2000/svg">
<path d="M21.6167 4.23335C20.6167 3.66668 19.3834 3.66668 18.3834 4.23335L6.7167 10.7167L15.1667 15.4C16.3834 14.1333 18.1 13.3333 20 13.3333C21.9 13.3333 23.6167 14.1333 24.8334 15.4L33.2834 10.7L21.6167 4.23335ZM16.6667 20C16.6667 18.1667 18.1667 16.6667 20 16.6667C21.8334 16.6667 23.3334 18.1667 23.3334 20C23.3334 21.8333 21.8334 23.3333 20 23.3333C18.1667 23.3333 16.6667 21.8333 16.6667 20ZM5.00004 13.5667L13.55 18.3167C13.4 18.85 13.3334 19.4167 13.3334 20C13.3334 23.1 15.45 25.7167 18.3334 26.45V35.7333L6.7167 29.2833C6.1946 28.9966 5.75955 28.5743 5.45742 28.061C5.15528 27.5477 4.99727 26.9623 5.00004 26.3667V13.5667ZM21.6667 35.7333V26.45C24.55 25.7167 26.6667 23.1 26.6667 20C26.6667 19.4167 26.6 18.85 26.45 18.3167L35 13.5667V26.3667C35 27.5833 34.35 28.7 33.2834 29.2833L21.6667 35.7333Z" fill="#1C1B23"/>
</svg>
