<svg width="142" height="91" viewBox="0 0 142 91" fill="none" xmlns="http://www.w3.org/2000/svg">
<path d="M75.44 1.52L27.2 89H11.96L0.680002 1.52H18.8L24.2 67.4L57.32 1.52H75.44ZM136.966 56.48C136.966 76.76 121.726 90.44 96.0463 90.44C76.1263 90.44 63.7663 81.8 63.7663 66.8C63.7663 65.12 63.8863 63.92 64.2463 61.52H81.7663C81.6463 62.6 81.5263 63.68 81.5263 64.28C81.5263 71.12 87.7663 75.08 98.6863 75.08C111.166 75.08 119.086 70.4 119.086 62.36C119.086 56.72 115.486 55.16 104.566 52.88L92.8063 50.48C78.5263 47.6 72.5263 42.32 72.5263 32.36C72.5263 14.6 87.5263 0.0799932 111.166 0.0799932C130.246 0.0799932 141.406 7.75999 141.406 20.72C141.406 23.12 141.166 24.8 140.446 28.16H123.646C123.766 27.08 123.886 26 123.886 25.4C123.886 18.92 118.246 15.44 108.046 15.44C97.1263 15.44 90.4063 20.24 90.4063 27.92C90.4063 32.48 93.6463 34.4 104.926 36.68L118.006 39.32C130.246 41.84 136.966 47.24 136.966 56.48Z" fill="url(#paint0_linear_52_867)"/>
<defs>
<linearGradient id="paint0_linear_52_867" x1="125.166" y1="74.5" x2="-11.2372" y2="-18.3425" gradientUnits="userSpaceOnUse">
<stop stop-color="#F3FFE8"/>
<stop offset="1" stop-color="#B8FF72"/>
</linearGradient>
</defs>
</svg>
