<svg width="46" height="53" viewBox="0 0 46 53" fill="none" xmlns="http://www.w3.org/2000/svg">
<path fill-rule="evenodd" clip-rule="evenodd" d="M7.68951 8.45876L2.88855 7.25852C2.79076 7.23428 2.49488 7.2067 2.49488 7.2067C2.10037 7.20001 1.71088 7.32789 1.3941 7.5753C0.972013 7.90545 0.724609 8.41112 0.724609 8.94771V21.1365C0.724609 22.9837 1.45846 24.7556 2.76485 26.062C4.07124 27.3684 5.84234 28.1022 7.68951 28.1022H8.58133C10.1552 32.5546 13.6848 36.0843 18.1373 37.6582V42.032C18.0328 42.032 17.9291 42.042 17.8263 42.0604L8.24867 43.8015C7.70957 43.9001 7.24819 44.2461 7.0033 44.7359L4.39136 49.9598C4.12139 50.4997 4.1498 51.1408 4.46742 51.654C4.78419 52.1672 5.34503 52.4798 5.94849 52.4798H40.7746C41.3781 52.4798 41.9381 52.1672 42.2557 51.654C42.5725 51.1408 42.6017 50.4997 42.3318 49.9598L39.7198 44.7359C39.4749 44.2461 39.0136 43.9001 38.4736 43.8015L28.8968 42.0604C28.794 42.042 28.6895 42.032 28.585 42.032V37.6582C33.0383 36.0843 36.568 32.5546 38.1418 28.1006L39.0328 28.1022C40.88 28.1022 42.6519 27.3684 43.9583 26.062C45.2647 24.7556 45.9985 22.9837 45.9985 21.1365C45.9985 16.0079 45.9985 8.94771 45.9985 8.94771C45.9985 8.41112 45.7511 7.90545 45.3282 7.5753C44.9061 7.24515 44.3545 7.12813 43.8346 7.25852L39.0328 8.45876V3.72383C39.0328 2.9741 38.5539 2.30879 37.8426 2.07225L32.6187 0.3304C32.4407 0.271056 32.2551 0.240967 32.0679 0.240967H14.6552C14.468 0.240967 14.2816 0.271056 14.1044 0.3304L8.88055 2.07225C8.16927 2.30879 7.68951 2.9741 7.68951 3.72383V8.45876ZM15.023 46.11L13.5787 48.9977H8.76604L9.72891 47.072L15.023 46.11ZM31.7001 46.11L36.9942 47.072L37.9571 48.9977H33.1444L31.7001 46.11ZM29.2503 48.9977H17.4728L19.2138 45.5149H27.5093L29.2503 48.9977ZM25.103 38.4539C24.5313 38.5174 23.9504 38.55 23.3612 38.55C22.7727 38.55 22.1918 38.5174 21.6201 38.4539V42.032H25.103V38.4539ZM23.3612 35.0671C16.6294 35.0671 11.1724 29.61 11.1724 22.8783V4.97924L14.9377 3.72383H31.7854L35.5508 4.97924V22.8783C35.5508 29.61 30.0929 35.0671 23.3612 35.0671ZM24.9124 9.89721C24.6149 9.31464 24.0156 8.94771 23.3612 8.94771C22.7067 8.94771 22.1083 9.31464 21.8107 9.89721L19.7654 13.905L15.3214 14.6121C14.6753 14.7149 14.1412 15.1712 13.9389 15.7931C13.7367 16.4158 13.9005 17.0986 14.3635 17.5617L17.543 20.7453L16.8417 25.1902C16.7398 25.8363 17.0089 26.4849 17.538 26.8702C18.0679 27.2547 18.7683 27.3099 19.3509 27.0131L23.3612 24.9729L27.3714 27.0131C27.9548 27.3099 28.6552 27.2547 29.1843 26.8702C29.7142 26.4849 29.9834 25.8363 29.8814 25.1902L29.1801 20.7453L32.3596 17.5617C32.8218 17.0986 32.9856 16.4158 32.7834 15.7931C32.5811 15.1712 32.047 14.7149 31.4009 14.6121L26.9577 13.905L24.9124 9.89721ZM39.0328 12.0486V22.8783C39.0328 23.4668 39.001 24.0477 38.9375 24.6194H39.0328C39.9564 24.6194 40.8423 24.2524 41.496 23.5997C42.1487 22.946 42.5157 22.0601 42.5157 21.1365V11.1777L39.0328 12.0486ZM7.68951 12.0486L4.20748 11.1777V21.1365C4.20748 22.0601 4.5744 22.946 5.22718 23.5997C5.87995 24.2524 6.76592 24.6194 7.68951 24.6194H7.78563C7.7221 24.0477 7.68951 23.4668 7.68951 22.8783V12.0486ZM23.3612 14.5201L24.258 16.277C24.5112 16.7727 24.986 17.1179 25.536 17.2056L27.4843 17.5149L26.0901 18.9115C25.6964 19.3052 25.5151 19.8635 25.602 20.4127L25.9096 22.3618L24.151 21.4675C23.6545 21.2151 23.0678 21.2151 22.5721 21.4675L20.8136 22.3618L21.1203 20.4127C21.2072 19.8635 21.0259 19.3052 20.633 18.9115L19.2389 17.5149L21.1872 17.2056C21.7372 17.1179 22.2119 16.7727 22.4643 16.277L23.3612 14.5201Z" fill="url(#paint0_linear_55_1561)"/>
<defs>
<linearGradient id="paint0_linear_55_1561" x1="0.499999" y1="5.53712e-07" x2="54" y2="52" gradientUnits="userSpaceOnUse">
<stop stop-color="#2D2D32"/>
<stop offset="0.615" stop-color="#373BC1"/>
<stop offset="1" stop-color="#373BC1"/>
</linearGradient>
</defs>
</svg>
